<svg width="30" height="20" viewBox="0 0 30 20" fill="none" xmlns="http://www.w3.org/2000/svg">
<path fill-rule="evenodd" clip-rule="evenodd" d="M28.6641 0.537109H1.2832C0.75 0.537109 0.416016 0.619141 0.234375 0.789063C0.0761719 0.982422 0 1.29883 0 1.76758V3.51953V4.93164V15.0273V16.5039V18.1914C0 19.0293 0.433594 19.4629 1.2832 19.4629H28.6641C29.5547 19.4629 30 19.0293 30 18.1914V16.5039V15.0273V4.92578V3.51367V1.76172C30 0.935547 29.5547 0.537109 28.6641 0.537109Z" fill="#F3F3F3"/>
<path fill-rule="evenodd" clip-rule="evenodd" d="M1.2832 0.537109C0.75 0.537109 0.416016 0.619141 0.234375 0.789063C0.0761719 0.982422 0 1.29883 0 1.76758V4.93164H30V1.76758C30 0.941406 29.5547 0.542969 28.6641 0.542969H1.2832V0.537109Z" fill="#025380"/>
<path fill-rule="evenodd" clip-rule="evenodd" d="M0 18.1914C0 19.0293 0.433594 19.4629 1.2832 19.4629H28.6641C29.5547 19.4629 30 19.0293 30 18.1914V15.0273H0V18.1914Z" fill="#F1A71E"/>
<path fill-rule="evenodd" clip-rule="evenodd" d="M10.3477 7.45703C10.3477 7.60352 10.3242 7.7207 10.2656 7.79687L8.2793 11.2598L8.15625 7.04102H4.98047L6.04687 7.55078C6.35156 7.74414 6.50977 7.99609 6.50977 8.3125L6.80273 12.7949H8.35547L12.0762 7.04102H10.1719C10.2891 7.14062 10.3477 7.29883 10.3477 7.45703Z" fill="#025380"/>
<path fill-rule="evenodd" clip-rule="evenodd" d="M23.1914 7.21094L23.3145 7.04102H21.375C21.4453 7.11133 21.4688 7.14063 21.4688 7.16406C21.4453 7.25195 21.3984 7.31055 21.375 7.38086L18.5508 12.5313C18.4805 12.625 18.416 12.7012 18.334 12.7949H19.9336L19.8516 12.625C19.8516 12.4785 19.9336 12.2031 20.1035 11.8223L20.4434 11.1895H22.0898C22.1602 11.7227 22.2012 12.168 22.2246 12.4961L22.0898 12.8008H24.0762L23.7832 12.3672L23.1914 7.21094ZM22.0137 10.375H20.8359L21.8437 8.43555L22.0137 10.375Z" fill="#025380"/>
<path fill-rule="evenodd" clip-rule="evenodd" d="M17.1094 6.74219C16.4941 6.74219 15.9727 6.91211 15.5098 7.25195C15 7.54492 14.748 7.91992 14.748 8.38867C14.748 8.92188 14.9297 9.38477 15.293 9.73633L16.3945 10.498C16.793 10.7793 16.9863 11.0313 16.9863 11.2598C16.9863 11.4766 16.8867 11.6699 16.6934 11.8164C16.5 11.9629 16.2832 12.0332 16.0137 12.0332C15.6152 12.0332 14.9355 11.752 13.9922 11.2305V12.2852C14.7305 12.7305 15.4453 12.9531 16.1367 12.9531C16.793 12.9531 17.3496 12.7715 17.8301 12.3613C18.3398 11.9863 18.5918 11.5469 18.5918 11.0547C18.5918 10.6445 18.4102 10.2695 18 9.87695L16.9453 9.11524C16.5938 8.83399 16.4004 8.58203 16.4004 8.38867C16.4004 7.94336 16.6641 7.7207 17.1973 7.7207C17.5605 7.7207 18.0937 7.92578 18.8086 8.35352L19.0254 7.25195C18.416 6.91211 17.7891 6.74219 17.1094 6.74219Z" fill="#025380"/>
<path fill-rule="evenodd" clip-rule="evenodd" d="M12.8906 12.7891C12.8672 12.5488 12.8203 12.332 12.7969 12.1094L14.2383 7.45703L14.5781 7.03516H12.5039C12.5273 7.13477 12.5508 7.27539 12.5742 7.375C12.5742 7.47461 12.5742 7.60352 12.5508 7.71484L11.1094 12.3203L10.8164 12.7832H12.8906V12.7891Z" fill="#025380"/>
</svg>
